# xmcd
#
# Track frame offsets: 
#        150
#        18476
#        37164
#        53682
#        76195
#        81713
#        106444
#        119984
#        137686
#        161394
#
# Disc length: 2393 seconds
#
# Revision: 0
# Processed by: cddbd v1.5.2PL0 Copyright (c) Steve Scherf et al.
# Submitted via: ExactAudioCopyFreeDBPlugin 1.0
#
DISCID=8709570a
DTITLE=Yom - You will never die
DYEAR=2018
DGENRE=Klezme Cross over
TTITLE0=It's not too late to save the world
TTITLE1=Waiting for the flood
TTITLE2=Swimming in the styx
TTITLE3=Gaia big love
TTITLE4=Countdown
TTITLE5=Love'n die
TTITLE6=Kiss me goodbye
TTITLE7=Dance of the earth
TTITLE8=Exoplanet 666
TTITLE9=YOU WILL NEVER DIE!
EXTD=
EXTT0=
EXTT1=
EXTT2=
EXTT3=
EXTT4=
EXTT5=
EXTT6=
EXTT7=
EXTT8=
EXTT9=
PLAYORDER=
